<svg xmlns="http://www.w3.org/2000/svg" viewBox="0 0 240 150">
  <rect width="240" height="150" fill="#ffffff"/>
  <g transform="translate(24 42) scale(3.2)">
    <path fill="#000" d="M8.2 3.4c-.5.6-1.3 1.1-2.1 1-.1-.8.3-1.7.8-2.2.5-.6 1.4-1 2.1-1 .1.8-.2 1.6-.8 2.2ZM9 4.6c-1.2-.1-2.2.7-2.8.7-.6 0-1.4-.6-2.3-.6-1.2 0-2.3.7-2.9 1.8-1.2 2.1-.3 5.2.9 6.9.6.8 1.3 1.7 2.2 1.7.9 0 1.2-.6 2.3-.6 1.1 0 1.4.6 2.3.6.9 0 1.5-.8 2.1-1.6.7-.9 1-1.8 1-1.9-.1 0-1.9-.7-1.9-2.9 0-1.8 1.5-2.7 1.6-2.7-.9-1.3-2.2-1.5-2.7-1.5ZM16.2 3.8v12.1h1.8v-4.1h2.6c2.4 0 4.1-1.6 4.1-4 0-2.3-1.6-4-4-4h-4.5Zm1.8 1.5h2.2c1.6 0 2.5.8 2.5 2.5s-.9 2.5-2.5 2.5h-2.2V5.3Zm10.2 10.8c1.5 0 2.9-.8 3.5-2h.1v1.8h1.7V8.5c0-2.2-1.7-3.6-4.3-3.6-2.4 0-4 1.4-4.1 3.3h1.7c.2-1.1 1.1-1.8 2.3-1.8 1.5 0 2.3.7 2.3 2v.9l-3 .2c-2.8.2-4.3 1.3-4.3 3.2 0 2 1.5 3.3 3.8 3.3Zm.5-1.5c-1.3 0-2.1-.6-2.1-1.6 0-1 1-1.6 2.8-1.7l2.7-.2v.9c0 1.3-1.2 2.4-3.4 2.4Zm8.5 1.5c.9 0 1.7-.5 2-1.2h.1v1h1.6V8.5h-1.7v5.5c0 1.1-.6 1.7-1.6 1.7-1 0-1.5-.5-1.5-1.5V8.5h-1.7v5.8c0 1.9 1 3 2.8 3Zm6.2 0c2 0 3.1-1.1 3.2-2.7h-1.7c-.1.8-.8 1.3-1.6 1.3-1.1 0-1.8-.9-1.8-2.4 0-1.5.7-2.4 1.8-2.4.8 0 1.4.5 1.6 1.3h1.7c-.2-1.6-1.3-2.7-3.3-2.7-2.2 0-3.6 1.5-3.6 3.8 0 2.3 1.4 3.8 3.7 3.8Z"/>
  </g>
</svg>
