<svg xmlns="http://www.w3.org/2000/svg" viewBox="0 0 240 150">
  <rect width="240" height="150" fill="#ffffff"/>
  <g transform="translate(20 48) scale(2.8)">
    <path fill="#00A651" d="M7 8h5l1.2 8H8.2L7 8Zm9 0h4l2.5 5.6L22.7 8h3.7l-4.3 8h-3.6l-2.4-5.3-2.4 5.3H9.7L7 8Zm14.8 0h7c2.2 0 3.6 1.1 3.6 2.8 0 1.2-.7 2.1-2 2.5l2.5 2.7h-4l-2-2.3h-1.5v2.3h-3.1V8Zm3.1 1.8v2.1h3.3c.8 0 1.2-.4 1.2-1 0-.7-.4-1.1-1.2-1.1h-3.3Zm10.4 6.2h-3.1V8h6c2.5 0 4.1 1.3 4.1 3.4 0 2.1-1.6 3.4-4.1 3.4h-2.9v.2Zm3-4.6c1 0 1.5-.5 1.5-1.2 0-.8-.5-1.2-1.5-1.2h-1.9v2.4h1.9Z"/>
    <path fill="#1B3A6B" d="M52.8 8h3.1l4.6 8h-3.4l-.7-1.3h-4.3l-.7 1.3h-3.4l4.9-8Zm.2 4.8 1.3-2.4 1.3 2.4h-2.6Z"/>
  </g>
</svg>
