<svg xmlns="http://www.w3.org/2000/svg" viewBox="0 0 48 16" fill="none">
  <path fill="#1434CB" d="M19.5 15.5h-3.2L17.8 1h3.2l-1.5 14.5ZM31.2 1.3c-.6-.2-1.6-.4-2.8-.4-3.1 0-5.3 1.6-5.3 3.9 0 1.7 1.5 2.6 2.7 3.2 1.2.6 1.6 1 1.6 1.5 0 .8-1 .1.2-1.2 1.2-.3 2.1-.8 2.7-1.1l.5 2.4c-.7.3-1.7.6-2.9.6-3 0-5.1-1.6-5.1-3.9 0-1.3.8-2.6 2.8-3.6 1.1-.5 1.8-.8 1.8-1.3 0-.4-.5-.9-1.6-.9-.9 0-1.8.2-2.4.5l-.5-2.4ZM39.8 1h-2.5c-.8 0-1.3.2-1.7 1L31 15.5h3.4l.5-3.4h4.1l.3 3.4H42L39.8 1Zm-3.8 9.2 1.7-4.6.9 4.6h-2.6ZM14.2 1 11 10.8 10.7 8.8 9.5 2.2C9.3 1.3 8.6.9 7.8.9H2.8l-.1.6C4.2 1.8 6 2.6 7.4 3.5l2.8 12h3.5L14.2 1Z"/>
</svg>
