<svg xmlns="http://www.w3.org/2000/svg" viewBox="0 0 240 150">
  <rect width="240" height="150" fill="#ffffff"/>
  <path fill="#1434CB" d="M97.5 117.5h-16L89 32.5h16l-7.5 85ZM156 33.25c-3-1-8-2-14-2-15.5 0-26.5 8-26.5 19.5 0 8.5 7.5 13 13.5 16 6 3 8 5 8 7.5 0 4-5 .5 1-6 6-1.5 10.5-4 13.5-5.5l2.5 12c-3.5 1.5-8.5 3-14.5 3-15 0-25.5-8-25.5-19.5 0-6.5 4-13 14-18 5.5-2.5 9-4 9-6.5 0-2-2.5-4.5-8-4.5-4.5 0-9 1-12 2.5l-2.5-12ZM199 32.5h-12.5c-4 0-6.5 1-8.5 5l-15 80h16.5l2.5-17h20.5l1.5 17H210L199 32.5Zm-19 46 8.5-23 4.5 23h-13ZM71 32.5 55 54 54.5 44.5 48.5 11C47.5 6.5 44 5 41 5H14l-.5 3C21 11.5 30 17 37 22.5l14 60h17.5L71 32.5Z" transform="scale(1.2) translate(20 8)"/>
</svg>
